<svg class="diagram-root" style="background: #f5f6f6" xmlns="http://www.w3.org/2000/svg" xmlns:xlink="http://www.w3.org/1999/xlink"><style>.diagram-root { font-family: "Helvetica Neue", sans-serif; font-size: 12px; } .t { overflow: visible; } .t-bg { y: 40; fill: #fff;   } .th { fill: #005aa0;   } .tht { fill: #fff; font-size: 14px;  } .tf { fill: #323c46; overflow: visible; } .tf.pk { fill: #005aa0; font-weight: bold; } .tf.fk { font-weight: bold; } .ty { fill: #adb1b5; font-weight: normal; text-anchor: end; } .r { fill: transparent; stroke: #c3c3c3; stroke-width: 1; } .l { stroke: 1; } .i { fill: #c2c7ce; stroke: #c2c7ce; } .i.ix { fill: #afb3b6; stroke: #000; } .fa { fill: transparent; overflow: visible; } .fa .bg.hover { fill: #f7f7f7; } .c { cy: 12; r: 4; stroke: #d2d2dc; fill: #d2d2dc; } .hr { fill: transparent; stroke: #323c46; stroke-opacity: 0.035; stroke-width: 13; } .dc { stroke: #fa5a3c; fill: #fa5a3c; } .x { stroke: white; stroke-width: 1; } .hl .th { fill: #1b9bff; } .hl .tht {  } .fhl .bg { fill: #e7f4ff; } .fhls .bg {  } .r.hl { stroke: #1b9bff; } .dim { opacity: 0.25; }</style><g class="drawing-wrapper" transform="translate(-78.00333333333332, -210.0000000000001) scale(1,1)"><g class="rs"><path d="M 230.51 402 m -1, 0 a 1,1 0 1,0 2,0 a 1,1 0 1,0 -2,0 M 230.51 402 m -0.5, 0 a 0.5,0.5 0 1,0 1,0 a 0.5,0.5 0 1,0 -1,0  M230.51 402 L230.51 402 242.51 402 M 230.51 408 m -1, 0 a 1,1 0 1,0 2,0 a 1,1 0 1,0 -2,0 M 230.51 408 m -0.5, 0 a 0.5,0.5 0 1,0 1,0 a 0.5,0.5 0 1,0 -1,0  M230.51 408 L230.51 408 237.51 402 230.51 396 M 230.51 396 m -1, 0 a 1,1 0 1,0 2,0 a 1,1 0 1,0 -2,0 M 230.51 396 m -0.5, 0 a 0.5,0.5 0 1,0 1,0 a 0.5,0.5 0 1,0 -1,0  M242.51 402 Q 258.05 402, 273.59 352.84 T 304.67 303.66999999999996 M 316.67 303.66999999999996 m -1, 0 a 1,1 0 1,0 2,0 a 1,1 0 1,0 -2,0 M 316.67 303.66999999999996 m -0.5, 0 a 0.5,0.5 0 1,0 1,0 a 0.5,0.5 0 1,0 -1,0  M316.67 303.66999999999996 L316.67 303.66999999999996 304.67 303.66999999999996 M310.67 309.66999999999996 L310.67 309.66999999999996 310.67 297.66999999999996" id="h890240700" class="r"></path><path d="M 448.13 448.67 m -1, 0 a 1,1 0 1,0 2,0 a 1,1 0 1,0 -2,0 M 448.13 448.67 m -0.5, 0 a 0.5,0.5 0 1,0 1,0 a 0.5,0.5 0 1,0 -1,0  M448.13 448.67 L448.13 448.67 460.13 448.67 M 448.13 454.67 m -1, 0 a 1,1 0 1,0 2,0 a 1,1 0 1,0 -2,0 M 448.13 454.67 m -0.5, 0 a 0.5,0.5 0 1,0 1,0 a 0.5,0.5 0 1,0 -1,0  M448.13 454.67 L448.13 454.67 455.13 448.67 448.13 442.67 M 448.13 442.67 m -1, 0 a 1,1 0 1,0 2,0 a 1,1 0 1,0 -2,0 M 448.13 442.67 m -0.5, 0 a 0.5,0.5 0 1,0 1,0 a 0.5,0.5 0 1,0 -1,0  M460.13 448.67 Q 498.35 448.67, 536.57 390.34 T 613 332 M 625 332 m -1, 0 a 1,1 0 1,0 2,0 a 1,1 0 1,0 -2,0 M 625 332 m -0.5, 0 a 0.5,0.5 0 1,0 1,0 a 0.5,0.5 0 1,0 -1,0  M625 332 L625 332 613 332 M619 338 L619 338 619 326" id="h3454280967" class="r"></path><path d="M 346.67 473.67 m -1, 0 a 1,1 0 1,0 2,0 a 1,1 0 1,0 -2,0 M 346.67 473.67 m -0.5, 0 a 0.5,0.5 0 1,0 1,0 a 0.5,0.5 0 1,0 -1,0  M346.67 473.67 L346.67 473.67 334.67 473.67 M 346.67 479.67 m -1, 0 a 1,1 0 1,0 2,0 a 1,1 0 1,0 -2,0 M 346.67 479.67 m -0.5, 0 a 0.5,0.5 0 1,0 1,0 a 0.5,0.5 0 1,0 -1,0  M346.67 479.67 L346.67 479.67 339.67 473.67 346.67 467.67 M 346.67 467.67 m -1, 0 a 1,1 0 1,0 2,0 a 1,1 0 1,0 -2,0 M 346.67 467.67 m -0.5, 0 a 0.5,0.5 0 1,0 1,0 a 0.5,0.5 0 1,0 -1,0  M334.67 473.67 Q 311.63 473.67, 288.59 437.84 T 242.51 402 M 230.51 402 m -1, 0 a 1,1 0 1,0 2,0 a 1,1 0 1,0 -2,0 M 230.51 402 m -0.5, 0 a 0.5,0.5 0 1,0 1,0 a 0.5,0.5 0 1,0 -1,0  M230.51 402 L230.51 402 242.51 402 M236.51 408 L236.51 408 236.51 396" id="h486737031" class="r"></path><path d="M 458.58 328.66999999999996 m -1, 0 a 1,1 0 1,0 2,0 a 1,1 0 1,0 -2,0 M 458.58 328.66999999999996 m -0.5, 0 a 0.5,0.5 0 1,0 1,0 a 0.5,0.5 0 1,0 -1,0  M458.58 328.66999999999996 L458.58 328.66999999999996 470.58 328.66999999999996 M 458.58 334.66999999999996 m -1, 0 a 1,1 0 1,0 2,0 a 1,1 0 1,0 -2,0 M 458.58 334.66999999999996 m -0.5, 0 a 0.5,0.5 0 1,0 1,0 a 0.5,0.5 0 1,0 -1,0  M458.58 334.66999999999996 L458.58 334.66999999999996 465.58 328.66999999999996 458.58 322.66999999999996 M 458.58 322.66999999999996 m -1, 0 a 1,1 0 1,0 2,0 a 1,1 0 1,0 -2,0 M 458.58 322.66999999999996 m -0.5, 0 a 0.5,0.5 0 1,0 1,0 a 0.5,0.5 0 1,0 -1,0  M470.58 328.66999999999996 Q 506.18 328.66999999999996, 541.79 330.34 T 613 332 M 625 332 m -1, 0 a 1,1 0 1,0 2,0 a 1,1 0 1,0 -2,0 M 625 332 m -0.5, 0 a 0.5,0.5 0 1,0 1,0 a 0.5,0.5 0 1,0 -1,0  M625 332 L625 332 613 332 M619 338 L619 338 619 326" id="h2067037917" class="r"></path><path d="M 737.37 357 m -1, 0 a 1,1 0 1,0 2,0 a 1,1 0 1,0 -2,0 M 737.37 357 m -0.5, 0 a 0.5,0.5 0 1,0 1,0 a 0.5,0.5 0 1,0 -1,0  M737.37 357 L737.37 357 749.37 357 M 737.37 363 m -1, 0 a 1,1 0 1,0 2,0 a 1,1 0 1,0 -2,0 M 737.37 363 m -0.5, 0 a 0.5,0.5 0 1,0 1,0 a 0.5,0.5 0 1,0 -1,0  M737.37 363 L737.37 363 744.37 357 737.37 351 M 737.37 351 m -1, 0 a 1,1 0 1,0 2,0 a 1,1 0 1,0 -2,0 M 737.37 351 m -0.5, 0 a 0.5,0.5 0 1,0 1,0 a 0.5,0.5 0 1,0 -1,0  M749.37 357 Q 766.11 357, 782.85 392 T 816.33 427 M 828.33 427 m -1, 0 a 1,1 0 1,0 2,0 a 1,1 0 1,0 -2,0 M 828.33 427 m -0.5, 0 a 0.5,0.5 0 1,0 1,0 a 0.5,0.5 0 1,0 -1,0  M828.33 427 L828.33 427 816.33 427 M822.33 433 L822.33 433 822.33 421" id="h3711560055" class="r"></path><path d="M 908.33 297 m -1, 0 a 1,1 0 1,0 2,0 a 1,1 0 1,0 -2,0 M 908.33 297 m -0.5, 0 a 0.5,0.5 0 1,0 1,0 a 0.5,0.5 0 1,0 -1,0  M908.33 297 L908.33 297 896.33 297 M 908.33 303 m -1, 0 a 1,1 0 1,0 2,0 a 1,1 0 1,0 -2,0 M 908.33 303 m -0.5, 0 a 0.5,0.5 0 1,0 1,0 a 0.5,0.5 0 1,0 -1,0  M908.33 303 L908.33 303 901.33 297 908.33 291 M 908.33 291 m -1, 0 a 1,1 0 1,0 2,0 a 1,1 0 1,0 -2,0 M 908.33 291 m -0.5, 0 a 0.5,0.5 0 1,0 1,0 a 0.5,0.5 0 1,0 -1,0  M896.33 297 Q 859.59 297, 822.85 314.5 T 749.37 332 M 737.37 332 m -1, 0 a 1,1 0 1,0 2,0 a 1,1 0 1,0 -2,0 M 737.37 332 m -0.5, 0 a 0.5,0.5 0 1,0 1,0 a 0.5,0.5 0 1,0 -1,0  M737.37 332 L737.37 332 749.37 332 M743.37 338 L743.37 338 743.37 326" id="h1853324509" class="r"></path></g><g class="hrs"></g><g class="ts"><svg width="130.51" height="100" x="100" y="345" id="h2737659281" class="t"><rect height="40" width="130.51" class="th"></rect><text x="13" y="25" class="tht">DEPARTMENTS</text><rect height="60" width="130.51" class="t-bg"></rect><text x="13" y="61" class="tf fk">dept_no</text><text x="13" y="86" class="tf">dept_name</text></svg><svg width="101.46" height="100" x="346.67" y="391.67" id="h663659370" class="t"><rect height="40" width="101.46" class="th"></rect><text x="13" y="25" class="tht">DEPT_EMP</text><rect height="60" width="101.46" class="t-bg"></rect><text x="13" y="61" class="tf fk">emp_no</text><text x="13" y="86" class="tf fk">dept_no</text></svg><svg width="141.91" height="100" x="316.67" y="246.67" id="h991819583" class="t"><rect height="40" width="141.91" class="th"></rect><text x="13" y="25" class="tht">DEPT_MANAGER</text><rect height="60" width="141.91" class="t-bg"></rect><text x="13" y="61" class="tf fk">dept_no</text><text x="13" y="86" class="tf fk">emp_no</text></svg><svg width="112.37" height="225" x="625" y="275" id="h3412646542" class="t"><rect height="40" width="112.37" class="th"></rect><text x="13" y="25" class="tht">EMPLOYEES</text><rect height="185" width="112.37" class="t-bg"></rect><text x="13" y="61" class="tf pk">emp_no</text><path d="M7,14A2,2 0 0,1 5,12A2,2 0 0,1 7,10A2,2 0 0,1 9,12A2,2 0 0,1 7,14M12.65,10C11.83,7.67 9.61,6 7, 6A6, 6 0 0, 0 1, 12A6, 6 0 0, 0 7, 18C9.61, 18 11.83, 16.33 12.65, 14H17V18H21V14H23V10H12.65Z" class="i pk" transform="translate(84.37, 48) scale(0.65)"></path><text x="13" y="86" class="tf fk">emp_title_id</text><text x="13" y="111" class="tf">birth_date</text><text x="13" y="136" class="tf">first_name</text><text x="13" y="161" class="tf">last_name</text><text x="13" y="186" class="tf">sex</text><text x="13" y="211" class="tf">hire_date</text></svg><svg width="94.48" height="100" x="908.33" y="240" id="h4042341999" class="t"><rect height="40" width="94.48" class="th"></rect><text x="13" y="25" class="tht">SALARIES</text><rect height="60" width="94.48" class="t-bg"></rect><text x="13" y="61" class="tf fk">emp_no</text><text x="13" y="86" class="tf">salary</text></svg><svg width="90" height="100" x="828.33" y="370" id="h3379882070" class="t"><rect height="40" width="90" class="th"></rect><text x="13" y="25" class="tht">TITLES</text><rect height="60" width="90" class="t-bg"></rect><text x="13" y="61" class="tf fk">title_id</text><text x="13" y="86" class="tf">title</text></svg></g></g><text class="qdbd-link" x="10" y="20">www.quickdatabasediagrams.com</text></svg>